# xmcd
#
# Track frame offsets:
#	150
#	11577
#	23188
#	35801
#	48009
#	64187
#	77396
#	90543
#	105374
#	123187
#	139303
#	154880
#	171799
#	186151
#	202526
#	217493
#	230654
#	245277
#	260770
#
# Disc length: 3670 seconds
#
# Revision: 1
# Processed by: cddbd v1.5.2PL0 Copyright (c) Steve Scherf et al.
# Submitted via: audiograbber 1.82.02
#
DISCID=fe0e5413
DTITLE=Various Artist - Country Radio - July 2015
DYEAR=2015
DGENRE=Country
TTITLE0=Zac Brown Band - Loving You Easy
TTITLE1=Brett Eldredge - Lose My Mind
TTITLE2=Jackie Lee - Headphones
TTITLE3=Olivia Lane - You (Pt. 2)
TTITLE4=Ashley Clark - Greyhound
TTITLE5=Randy Houser - We Went
TTITLE6=Chris Janson - Buy Me A Boat
TTITLE7=Lee Brice - That Don't Sound Like You
TTITLE8=Love and Theft - Whiskey On My Breath
TTITLE9=Lavendine - Maybe I Might
TTITLE10=Corey Smith - Feet Wet
TTITLE11=Kris Kristofferson - I Won't Back Down
TTITLE12=JB and The Moonshine Band - Shotgun, Rifle and A 45
TTITLE13=Granger Smith - Backroad Song
TTITLE14=Lucy Angel - Crazy Too
TTITLE15=Cadillac Three - White Lightning
TTITLE16=Chris Young - I'm Comin' Over
TTITLE17=Steven Tyler - Love Is Your Name
TTITLE18=Adley Stump - Stay At Home Soldier
EXTD=
EXTT0=
EXTT1=
EXTT2=
EXTT3=
EXTT4=
EXTT5=
EXTT6=
EXTT7=
EXTT8=
EXTT9=
EXTT10=
EXTT11=
EXTT12=
EXTT13=
EXTT14=
EXTT15=
EXTT16=
EXTT17=
EXTT18=
PLAYORDER=
